<svg width="512" height="512" viewBox="0 0 512 512" fill="none" xmlns="http://www.w3.org/2000/svg">
<g clip-path="url(#clip0)">
<path d="M416.668 361.492H391.5V336.324C391.5 328.039 384.785 321.324 376.5 321.324C368.215 321.324 361.5 328.039 361.5 336.324V361.492H336.332C328.051 361.492 321.332 368.207 321.332 376.492C321.332 384.777 328.051 391.492 336.332 391.492H361.5V416.656C361.5 424.941 368.215 431.656 376.5 431.656C384.785 431.656 391.5 424.941 391.5 416.656V391.492H416.668C424.949 391.492 431.668 384.777 431.668 376.492C431.668 368.207 424.949 361.492 416.668 361.492V361.492Z" fill="white"/>
<path d="M461.191 270.805C489.578 268.574 512 244.777 512 215.824C512 185.406 487.254 160.656 456.832 160.656H439.75L387.309 34.0546C375.668 5.95308 343.336 -7.44145 315.23 4.19918C301.617 9.8398 291.012 20.4414 285.375 34.0546C279.734 47.6679 279.738 62.664 285.379 76.2773L320.328 160.656H191.676L226.625 76.2773C238.266 48.1718 224.871 15.8398 196.77 4.19918C168.664 -7.44145 136.328 5.95308 124.691 34.0546L72.25 160.656H55.168C24.75 160.656 0 185.406 0 215.824C0 241.641 17.8281 263.363 41.8164 269.348L67.125 459.16C69.0156 473.355 76.3125 486.645 87.6602 496.582C99.0078 506.52 113.148 511.992 127.469 511.992H376.5C451.215 511.992 512 451.207 512 376.492C512 333.797 492.145 295.656 461.191 270.805V270.805ZM313.094 64.7968C310.52 58.5859 310.52 51.7461 313.09 45.5351C315.664 39.3242 320.5 34.4882 326.711 31.9179C339.531 26.6093 354.285 32.7187 359.594 45.5351L407.277 160.656H352.801L313.094 64.7968ZM152.406 45.5351C157.719 32.7187 172.469 26.6093 185.289 31.9179C198.109 37.2265 204.219 51.9765 198.906 64.8007L159.203 160.656H104.723L152.406 45.5351ZM30 215.824C30 201.945 41.2891 190.656 55.168 190.656H82.1875C82.2148 190.656 82.2422 190.66 82.2695 190.66C82.3047 190.66 82.3398 190.656 82.375 190.656H169.266H169.379H342.59H342.777H429.625C429.664 190.656 429.699 190.66 429.734 190.66C429.758 190.66 429.785 190.656 429.812 190.656H456.832C470.711 190.656 482 201.945 482 215.824C482 229.699 470.711 240.992 456.832 240.992H55.168C41.2891 240.992 30 229.699 30 215.824V215.824ZM127.469 481.992C112.816 481.992 98.7969 469.719 96.8633 455.195L72.3008 270.992H291.574C260.754 295.848 241 333.902 241 376.492C241 419.078 260.754 457.133 291.574 481.992H127.469ZM376.5 481.992C318.328 481.992 271 434.664 271 376.492C271 318.316 318.328 270.992 376.5 270.992C434.672 270.992 482 318.316 482 376.492C482 434.664 434.672 481.992 376.5 481.992Z" fill="#F36429"/>
</g>
<defs>
<clipPath id="clip0">
<rect width="512" height="512" fill="white"/>
</clipPath>
</defs>
</svg>
