<svg width="298" height="298" viewBox="0 0 298 298" fill="none" xmlns="http://www.w3.org/2000/svg">
<g clip-path="url(#clip0)">
<path d="M227.455 59.22C254.595 59.22 276.684 81.31 276.684 108.47C276.684 135.63 254.594 157.72 227.455 157.72C220.855 157.72 214.475 156.43 208.555 153.96C220.475 143.019 229.496 128.81 234.026 112.48C235.465 107.259 232.406 101.86 227.196 100.41C221.975 98.97 216.576 102.03 215.135 107.24C206.896 136.96 179.595 157.719 148.745 157.719C117.895 157.719 90.605 136.959 82.365 107.24C80.915 102.019 75.525 98.97 70.304 100.41C65.084 101.86 62.034 107.26 63.474 112.48C68.004 128.809 77.014 143.019 88.945 153.96C83.014 156.43 76.645 157.72 70.045 157.72C42.905 157.72 20.816 135.63 20.816 108.47C20.816 81.31 42.906 59.22 70.045 59.22C72.795 59.22 75.615 59.46 78.445 59.95C82.525 60.639 86.615 58.7 88.645 55.08C100.844 33.35 123.874 19.85 148.745 19.85C173.616 19.85 196.645 33.35 208.855 55.09C210.884 58.7 214.964 60.64 219.054 59.95C221.885 59.46 224.705 59.22 227.455 59.22Z" fill="white"/>
<path d="M217.655 176.62V271.769C217.655 274.959 214.955 277.65 211.775 277.65H85.725C82.536 277.65 79.845 274.96 79.845 271.769V176.62C89.446 175.26 98.566 171.9 106.785 166.67C119.405 173.49 133.745 177.32 148.745 177.32C163.745 177.32 178.095 173.49 190.705 166.67C198.935 171.9 208.045 175.26 217.655 176.62Z" fill="white"/>
<path d="M296.285 108.47C296.285 143.111 270.575 171.84 237.255 176.611V271.77C237.255 285.821 225.825 297.25 211.775 297.25H85.725C71.675 297.25 60.246 285.82 60.246 271.77V176.61C26.916 171.839 1.216 143.11 1.216 108.469C1.216 70.499 32.096 39.619 70.046 39.619C71.696 39.619 73.366 39.679 75.036 39.799C91.366 15.249 119.036 0.248993 148.746 0.248993C178.466 0.248993 206.136 15.249 222.466 39.799C224.136 39.679 225.806 39.619 227.456 39.619C265.405 39.62 296.285 70.5 296.285 108.47ZM276.685 108.47C276.685 81.31 254.595 59.22 227.456 59.22C224.706 59.22 221.886 59.46 219.056 59.95C214.966 60.639 210.886 58.7 208.857 55.09C196.647 33.35 173.617 19.85 148.747 19.85C123.877 19.85 100.847 33.35 88.647 55.08C86.617 58.7 82.527 60.639 78.447 59.95C75.617 59.46 72.797 59.22 70.047 59.22C42.907 59.22 20.818 81.31 20.818 108.47C20.818 135.63 42.908 157.72 70.047 157.72C76.648 157.72 83.017 156.43 88.947 153.96C77.016 143.019 68.007 128.81 63.476 112.48C62.036 107.259 65.086 101.86 70.306 100.41C75.527 98.97 80.916 102.019 82.367 107.24C90.607 136.96 117.897 157.719 148.747 157.719C179.597 157.719 206.897 136.959 215.137 107.24C216.577 102.03 221.977 98.97 227.198 100.41C232.408 101.86 235.468 107.26 234.028 112.48C229.498 128.809 220.477 143.019 208.557 153.96C214.477 156.43 220.858 157.72 227.457 157.72C254.595 157.72 276.685 135.63 276.685 108.47ZM217.655 271.77V176.62C208.045 175.26 198.934 171.9 190.705 166.67C178.095 173.49 163.745 177.32 148.745 177.32C133.745 177.32 119.405 173.49 106.785 166.67C98.565 171.9 89.445 175.26 79.845 176.62V271.769C79.845 274.959 82.535 277.65 85.725 277.65H211.776C214.955 277.65 217.655 274.96 217.655 271.77Z" fill="black"/>
</g>
<defs>
<clipPath id="clip0">
<rect width="297.5" height="297.5" fill="white"/>
</clipPath>
</defs>
</svg>
