<svg width="480" height="480" viewBox="0 0 480 480" fill="none" xmlns="http://www.w3.org/2000/svg">
<path d="M8.00781 343.994H472C472 370.502 450.508 391.993 424.001 391.993H56.007C29.4996 391.993 8.00781 370.502 8.00781 343.994V343.994Z" fill="white"/>
<path d="M424.001 343.994C424.001 370.502 402.509 391.993 376.002 391.993H424.001C450.508 391.993 472 370.502 472 343.994H424.001Z" fill="white"/>
<path d="M272.003 383.994H228.004C216.957 383.994 208.004 392.947 208.004 403.993C208.004 415.04 216.957 423.993 228.004 423.993H208.004L160.005 396.579C154.857 393.634 148.767 392.794 143.013 394.232L142.302 394.419C129.994 397.521 122.525 410.001 125.607 422.313C127.154 428.489 131.189 433.751 136.76 436.84L189.157 465.953C196.282 469.91 204.294 471.988 212.446 471.992H360.002V391.993L350.818 385.865C327.116 370.068 296.429 369.338 272.003 383.994V383.994Z" fill="white"/>
<path d="M472 471.992H360.002V391.993L472 392.146V471.992Z" fill="white"/>
<path d="M384.001 431.993H400.001V447.993H384.001V431.993Z" fill="#337EB0"/>
<path d="M376.002 111.999V32H328.003V111.999C302.73 132.221 288.012 162.83 288.004 195.196V343.995H416.002V195.196C415.994 162.83 401.275 132.221 376.002 111.999Z" fill="white"/>
<path d="M376.002 111.998V31.9995H344.002V111.998C369.275 132.22 383.994 162.829 384.002 195.196V343.994H416.001V195.196C415.993 162.829 401.275 132.22 376.002 111.998Z" fill="white"/>
<path d="M328.002 7.99988H376.002V39.9999H328.002V7.99988Z" fill="white"/>
<path d="M288.003 199.997H368.002V295.995H288.003V199.997Z" fill="white"/>
<path d="M200.005 255.996H216.004V343.994H200.005V255.996Z" fill="#87CED9"/>
<path d="M104.006 255.996H120.006V343.994H104.006V255.996Z" fill="#87CED9"/>
<path d="M200.005 255.996H216.005V287.996H200.005V255.996Z" fill="#71C4D1"/>
<path d="M104.006 255.996H120.006V287.996H104.006V255.996Z" fill="#71C4D1"/>
<path d="M328.003 175.998H312.003C312.163 165.818 315.44 155.931 321.393 147.669L334.604 156.716C330.483 162.318 328.182 169.048 328.003 175.998Z" fill="#B85C49"/>
<path d="M340.499 149.599L328.987 138.478C332.206 135.107 335.749 132.06 339.561 129.381L348.444 142.693L344.002 135.998L348.459 142.638C345.596 144.705 342.932 147.037 340.499 149.599V149.599Z" fill="#B85C49"/>
<path d="M208.004 271.995C234.512 271.995 256.004 250.504 256.004 223.996C256.004 213.344 255.246 202.704 253.738 192.157L248.004 151.997H168.005L162.271 192.157C160.763 202.704 160.005 213.344 160.005 223.996C160.005 250.504 181.497 271.995 208.004 271.995V271.995Z" fill="white"/>
<path d="M112.006 271.995C138.513 271.995 160.005 250.504 160.005 223.996C160.005 213.344 159.247 202.704 157.74 192.157L152.005 151.997H72.0067L66.2724 192.157C64.7646 202.704 64.0068 213.344 64.0068 223.996C64.0068 250.504 85.4987 271.995 112.006 271.995Z" fill="white"/>
<path d="M157.74 192.157L152.005 151.997H120.006L125.74 192.157C127.248 202.704 128.006 213.344 128.006 223.996C127.986 244.32 115.17 262.429 96.0063 269.203C110.69 274.449 127.01 272.218 139.748 263.222C152.482 254.226 160.04 239.59 160.005 223.996C160.005 213.344 159.247 202.704 157.74 192.157Z" fill="white"/>
<path d="M253.738 192.157L248.004 151.997H216.004L221.739 192.157C223.246 202.704 224.004 213.344 224.004 223.996C223.985 244.32 211.168 262.429 192.005 269.203C206.688 274.449 223.008 272.218 235.746 263.222C248.48 254.226 256.039 239.59 256.004 223.996C256.004 213.344 255.246 202.704 253.738 192.157V192.157Z" fill="white"/>
<path d="M236.004 415.993H264.004C268.422 415.993 272.004 419.575 272.004 423.993C272.004 428.411 268.422 431.993 264.004 431.993H236.004C231.586 431.993 228.004 428.411 228.004 423.993C228.004 419.575 231.586 415.993 236.004 415.993V415.993Z" fill="#F0AF81"/>
<path d="M472 335.994H424.001V195.196C424.075 161.743 409.45 129.951 384.002 108.236V7.99987C384.002 3.58197 380.42 0 376.002 0H328.002C323.585 0 320.003 3.58197 320.003 7.99987V108.236C294.554 129.951 279.929 161.743 280.003 195.196V335.994H216.004V279.355C243.531 275.382 263.972 251.808 264.004 223.996C264 212.965 263.214 201.95 261.66 191.028L255.926 150.861C255.359 146.923 251.984 143.998 248.004 143.998H168.005C164.025 143.998 160.65 146.923 160.087 150.861L160.005 151.439L159.927 150.861C159.361 146.923 155.986 143.998 152.005 143.998H72.0067C68.0263 143.998 64.6514 146.923 64.0889 150.861L58.3507 191.028C56.7961 201.95 56.0109 212.965 56.007 223.996C56.0383 251.808 76.4793 275.382 104.006 279.355V335.994H8.0078C3.58991 335.994 0.00793457 339.576 0.00793457 343.994C0.0430902 374.908 25.0935 399.958 56.007 399.993H121.9C121.717 400.275 121.486 400.497 121.318 400.794C116.99 407.993 115.776 416.645 117.951 424.759C120.123 432.876 125.498 439.758 132.846 443.832L185.243 472.953C193.567 477.566 202.926 479.992 212.446 480H472C476.418 480 480 476.418 480 472V392.146C480 387.728 476.418 384.146 472 384.146H462.961C473.852 373.63 480.004 359.135 480 343.994C480 339.576 476.418 335.994 472 335.994ZM336.002 15.9997H368.002V31.9995H336.002V15.9997ZM296.003 207.997H360.002V287.995H296.003V207.997ZM296.003 303.995H368.002C372.42 303.995 376.002 300.413 376.002 295.995V199.997C376.002 195.579 372.42 191.997 368.002 191.997H296.187C297.011 163.196 310.472 136.22 332.987 118.244C334.889 116.729 335.998 114.432 336.002 111.998V47.9992H368.002V111.998C368.002 114.428 369.103 116.729 371.002 118.244C394.435 136.904 408.064 165.243 408.001 195.196V335.994H296.003V303.995ZM170.181 193.294L174.982 159.997H241.109L245.867 193.294C247.297 203.465 248.012 213.723 248.004 223.996C248.004 246.086 230.094 263.996 208.004 263.996C185.915 263.996 168.005 246.086 168.005 223.996C168.009 213.723 168.736 203.465 170.181 193.294ZM160.005 252.691C168.657 267.136 183.345 276.929 200.005 279.355V335.994H120.006V279.355C136.666 276.929 151.353 267.136 160.005 252.691ZM72.0067 223.996C72.0106 213.723 72.7372 203.465 74.1825 193.294L78.9832 159.997H145.111L149.908 193.294C151.326 203.465 152.029 213.727 152.005 223.996C152.005 246.086 134.096 263.996 112.006 263.996C89.9166 263.996 72.0067 246.086 72.0067 223.996ZM352.002 463.992H212.446C205.649 463.988 198.966 462.258 193.02 458.961L140.615 429.833C137.06 427.868 134.455 424.544 133.4 420.622C132.346 416.7 132.928 412.517 135.014 409.032C137.224 405.431 140.814 402.899 144.951 402.025C148.705 401.075 152.677 401.622 156.037 403.544L204.036 430.962C205.247 431.645 206.614 432.001 208.004 431.993H272.003C276.421 431.993 280.003 428.411 280.003 423.993C280.003 419.575 276.421 415.993 272.003 415.993H228.004C221.375 415.993 216.004 410.622 216.004 403.993C216.004 397.364 221.375 391.993 228.004 391.993H272.003C273.457 391.993 274.878 391.599 276.124 390.849C297.917 377.861 325.225 378.509 346.377 392.521L351.979 396.275L352.002 463.992ZM200.805 410.665L182.134 399.993H200.411C200.18 401.314 200.044 402.653 200.005 403.993C200.001 406.243 200.27 408.481 200.805 410.665ZM464 400.138V463.992H368.002V399.993L464 400.138ZM424.001 383.994H362.4L355.201 379.193C329.592 362.244 296.659 361.01 269.851 375.994H228.004C220.469 375.998 213.254 379.048 208.004 384.458V383.994H56.007C37.0073 383.974 20.6326 370.607 16.8084 351.994H463.199C459.375 370.607 443.004 383.974 424.001 383.994Z" fill="black"/>
<path d="M384.001 431.993H400.001V447.993H384.001V431.993Z" fill="black"/>
<path d="M312.003 175.998H328.003C328.182 169.048 330.483 162.318 334.604 156.716L321.393 147.669C315.44 155.931 312.163 165.818 312.003 175.998Z" fill="black"/>
<path d="M339.561 129.342C335.749 132.021 332.206 135.068 328.987 138.439L340.499 149.556C342.944 147.01 345.624 144.693 348.499 142.638L344.002 135.998L339.561 129.342Z" fill="black"/>
</svg>
